<svg width="60" height="60" viewBox="0 0 60 60" fill="none" xmlns="http://www.w3.org/2000/svg">
<circle cx="30" cy="30" r="29" stroke="white" stroke-width="2"/>
<path d="M41 42V41.8284C41 41.298 41.2107 40.7893 41.5858 40.4142L48.0202 33.9798C49.2502 32.7498 49.7525 30.9689 49.3466 29.2774L47.3601 21.0003C47.1489 20.1204 46.362 19.5 45.4571 19.5V19.5C44.3762 19.5 43.5 20.3762 43.5 21.4571V29" stroke="white" stroke-width="2"/>
<rect x="32" y="43" width="10" height="4" stroke="white" stroke-width="2" stroke-linecap="round" stroke-linejoin="round"/>
<path d="M32.9998 42L32.9998 38.0598C32.9998 36.7404 33.5213 35.4745 34.4507 34.5379L40.0635 28.8816C40.9908 27.9472 42.5009 27.9443 43.4318 28.8751V28.8751C44.3601 29.8035 44.3601 31.3086 43.4318 32.2369L39.1687 36.5" stroke="white" stroke-width="2" stroke-linecap="round" stroke-linejoin="round"/>
<path d="M19 42V41.8284C19 41.298 18.7893 40.7893 18.4142 40.4142L11.9798 33.9798C10.7498 32.7498 10.2475 30.9689 10.6534 29.2774L12.6399 21.0003C12.8511 20.1204 13.638 19.5 14.5429 19.5V19.5C15.6238 19.5 16.5 20.3762 16.5 21.4571V29" stroke="white" stroke-width="2"/>
<rect width="10" height="4" transform="matrix(-1 0 0 1 28 43)" stroke="white" stroke-width="2" stroke-linecap="round" stroke-linejoin="round"/>
<path d="M27.0002 42L27.0002 38.0598C27.0002 36.7404 26.4787 35.4745 25.5493 34.5379L19.9365 28.8816C19.0092 27.9472 17.4991 27.9443 16.5682 28.8751V28.8751C15.6399 29.8035 15.6399 31.3086 16.5682 32.2369L20.8313 36.5" stroke="white" stroke-width="2" stroke-linecap="round" stroke-linejoin="round"/>
<path d="M29.1923 14.7782L29.8994 15.4853L30.6065 14.7782L30.9601 14.4246C32.3269 13.0578 34.543 13.0578 35.9098 14.4246C37.2767 15.7915 37.2767 18.0075 35.9098 19.3744L29.8994 25.3848L23.889 19.3744C22.5222 18.0075 22.5222 15.7915 23.889 14.4246C25.2558 13.0578 27.4719 13.0578 28.8388 14.4246L29.1923 14.7782Z" stroke="white" stroke-width="2" stroke-linecap="round"/>
</svg>
