<svg width="278" height="43" viewBox="0 0 278 43" fill="none" xmlns="http://www.w3.org/2000/svg">
<path d="M19.1607 10.4001C18.808 9.44946 18.2205 8.60352 17.453 7.94095C16.2708 6.96273 14.7679 6.45769 13.2349 6.52353C9.59744 6.52353 7.73601 8.69235 7.73601 11.2198C7.73601 12.381 8.14587 14.4303 11.937 15.9502L15.8648 17.5384C23.0714 20.4586 25.0524 24.5572 25.0524 29.0143C25.1337 30.6855 24.8633 32.3552 24.2586 33.9153C23.654 35.4754 22.7286 36.8913 21.5422 38.0712C20.3559 39.2511 18.9351 40.1688 17.3717 40.7649C15.8083 41.3611 14.1372 41.6224 12.4664 41.532C10.739 41.6169 9.01485 41.3091 7.42352 40.6318C5.83219 39.9544 4.41512 38.9251 3.27884 37.6213C1.36821 35.5184 0.214271 32.8379 0 30.0048L5.90874 28.724C5.93203 30.5205 6.53055 32.2622 7.61647 33.6935C8.22318 34.4624 9.00435 35.0757 9.89528 35.4825C10.7862 35.8894 11.7613 36.0781 12.7397 36.0331C13.5999 36.0526 14.4549 35.8953 15.2519 35.5709C16.0488 35.2464 16.7706 34.7618 17.3726 34.147C17.9746 33.5322 18.4439 32.8004 18.7515 31.9968C19.0591 31.1932 19.1984 30.335 19.1607 29.4754C19.1607 25.4964 16.1039 23.857 13.5252 22.7982L9.73406 21.21C6.52353 19.8609 1.77604 17.1627 1.77604 11.3052C1.77604 6.04536 5.87459 1.05879 13.1837 1.05879C16.0365 0.939863 18.8331 1.87612 21.0392 3.6887C22.259 4.78535 23.2713 6.09271 24.0278 7.54817L19.1607 10.4001Z" fill="#231F20"/>
<path d="M44.3497 23.9082L31.5417 1.7077H38.3727L47.3895 17.3334L56.4063 1.7077H63.2372L50.4122 23.9082V40.7806H44.4351L44.3497 23.9082Z" fill="#231F20"/>
<path d="M73.2958 40.7806V0L101.644 28.7752V1.7248H107.604V42.42L79.2728 13.4911V40.8147L73.2958 40.7806Z" fill="#231F20"/>
<path d="M148.948 10.8611C146.118 8.0928 142.32 6.53679 138.36 6.5235C129.822 6.5235 124.135 12.7909 124.135 21.3978C124.06 23.3094 124.376 25.216 125.063 27.0016C125.749 28.7872 126.792 30.4143 128.128 31.7836C129.464 33.153 131.064 34.236 132.832 34.9666C134.6 35.6971 136.499 36.06 138.412 36.0331C142.38 35.911 146.15 34.2732 148.948 31.4563V38.5434C145.699 40.4446 142.005 41.4521 138.241 41.4636C133.107 41.5573 128.144 39.6246 124.425 36.0843C122.374 34.2255 120.752 31.9435 119.67 29.3959C118.587 26.8483 118.072 24.096 118.158 21.3295C118.073 18.4722 118.586 15.6287 119.666 12.9818C120.745 10.3348 122.366 7.94299 124.425 5.95994C126.316 4.20801 128.538 2.85218 130.96 1.97231C133.383 1.09244 135.957 0.706334 138.531 0.836756C142.206 0.722654 145.832 1.70344 148.948 3.65451V10.8611Z" fill="#231F20"/>
<path d="M167.733 17.1798H184.469V1.81018H190.446V40.866H184.469V22.7982H167.733V40.7806H161.756V1.72479H167.733V17.1798Z" fill="#231F20"/>
<path d="M212.134 1.72479C216.865 1.72479 219.921 2.30543 222.381 4.01316C223.848 5.04603 225.038 6.4248 225.845 8.02737C226.652 9.62995 227.052 11.4069 227.008 13.2007C227.092 15.7513 226.265 18.2485 224.676 20.2449C223.086 22.2413 220.838 23.6065 218.333 24.0961L230.509 40.7806H223.32L212.134 24.7962H211.075V40.7806H205.303V1.72479H212.134ZM211.127 19.6389H213.005C214.713 19.6389 221.322 19.4681 221.322 13.269C221.322 7.75308 216.199 7.22368 213.176 7.22368H211.127V19.6389Z" fill="#231F20"/>
<path d="M277.387 21.21C277.4 25.2322 276.22 29.1679 273.995 32.5189C271.77 35.8698 268.601 38.4851 264.889 40.0337C261.177 41.5823 257.089 41.9945 253.142 41.2181C249.195 40.4417 245.568 38.5117 242.719 35.6723C239.87 32.833 237.928 29.2121 237.138 25.2681C236.349 21.3242 236.747 17.2346 238.283 13.5173C239.819 9.79996 242.424 6.62206 245.767 4.38602C249.111 2.14998 253.042 0.956367 257.065 0.956345C259.747 0.886264 262.415 1.36173 264.908 2.35388C267.4 3.34604 269.666 4.83421 271.566 6.72814C273.466 8.62207 274.962 10.8823 275.963 13.3717C276.963 15.8611 277.448 18.5278 277.387 21.21ZM271.409 21.21C271.409 12.5518 265.45 6.45524 257.065 6.45524C248.68 6.45524 242.737 12.6714 242.737 21.21C242.737 29.7487 248.697 35.9648 257.065 35.9648C265.432 35.9648 271.409 29.9536 271.409 21.21Z" fill="#231F20"/>
</svg>
